# xmcd CD database file
#
# Track frame offsets:
#	150
#	23597
#	41832
#	74890
#	89575
#	112482
#	136487
#	152677
#	177247
#	196540
#
# Disc length: 2955 seconds
#
# Revision: 0
# Processed by: cddbd v1.5.2PL0 Copyright (c) Steve Scherf et al.
# Submitted via: CDex 1.51
#
DISCID=900b890a
DTITLE=The Blues Agents - Way Of Life
DYEAR=1993
DGENRE=Blues
TTITLE0=Foxy Lady
TTITLE1=Someday Baby Blues
TTITLE2=Red House
TTITLE3=Mary Had A Little Lamb
TTITLE4=All Your Love
TTITLE5=Crossroads
TTITLE6=Let Me Love You Baby
TTITLE7=Shotgun Blues
TTITLE8=Come On
TTITLE9=Little Wing
EXTD=YEAR: 1993
EXTT0=
EXTT1=
EXTT2=
EXTT3=
EXTT4=
EXTT5=
EXTT6=
EXTT7=
EXTT8=
EXTT9=
PLAYORDER=
